<mxfile host="app.diagrams.net" modified="2024-05-09T09:26:45.494Z" agent="Mozilla/5.0 (Windows NT 10.0; Win64; x64) AppleWebKit/537.36 (KHTML, like Gecko) Chrome/124.0.0.0 Safari/537.36" etag="r9HF8l3BOkPHsNgFIJW3" version="24.3.1" type="device">
  <diagram name="Page-1" id="ELjl9gByCZCh_97ISyAW">
    <mxGraphModel dx="2074" dy="1098" grid="1" gridSize="10" guides="1" tooltips="1" connect="1" arrows="1" fold="1" page="1" pageScale="1" pageWidth="850" pageHeight="1100" math="1" shadow="0">
      <root>
        <mxCell id="0" />
        <mxCell id="1" parent="0" />
        <mxCell id="jB6_mRZn_5eLLBD233gM-1" value="f&lt;span style=&quot;font-size: 14px;&quot;&gt;&lt;sub style=&quot;font-size: 14px;&quot;&gt;1&lt;/sub&gt;&lt;/span&gt;" style="rounded=0;whiteSpace=wrap;html=1;fillColor=#ffe6cc;strokeColor=#000000;fontSize=14;" vertex="1" parent="1">
          <mxGeometry x="95" y="160" width="40" height="40" as="geometry" />
        </mxCell>
        <mxCell id="jB6_mRZn_5eLLBD233gM-2" value="f&lt;span style=&quot;font-size: 14px;&quot;&gt;&lt;sub style=&quot;font-size: 14px;&quot;&gt;2&lt;/sub&gt;&lt;/span&gt;" style="rounded=0;whiteSpace=wrap;html=1;fillColor=#ffe6cc;strokeColor=#000000;fontSize=14;" vertex="1" parent="1">
          <mxGeometry x="95" y="200" width="40" height="40" as="geometry" />
        </mxCell>
        <mxCell id="jB6_mRZn_5eLLBD233gM-3" style="edgeStyle=orthogonalEdgeStyle;rounded=0;orthogonalLoop=1;jettySize=auto;html=1;" edge="1" parent="1" source="jB6_mRZn_5eLLBD233gM-4">
          <mxGeometry relative="1" as="geometry">
            <mxPoint x="195" y="260" as="targetPoint" />
          </mxGeometry>
        </mxCell>
        <mxCell id="jB6_mRZn_5eLLBD233gM-4" value="." style="rounded=0;whiteSpace=wrap;html=1;fillColor=#ffe6cc;strokeColor=#000000;fontSize=14;" vertex="1" parent="1">
          <mxGeometry x="95" y="240" width="40" height="40" as="geometry" />
        </mxCell>
        <mxCell id="jB6_mRZn_5eLLBD233gM-5" value="." style="rounded=0;whiteSpace=wrap;html=1;fillColor=#ffe6cc;strokeColor=#000000;fontSize=14;" vertex="1" parent="1">
          <mxGeometry x="95" y="280" width="40" height="40" as="geometry" />
        </mxCell>
        <mxCell id="jB6_mRZn_5eLLBD233gM-6" value="." style="rounded=0;whiteSpace=wrap;html=1;fillColor=#ffe6cc;strokeColor=#000000;fontSize=14;" vertex="1" parent="1">
          <mxGeometry x="95" y="320" width="40" height="40" as="geometry" />
        </mxCell>
        <mxCell id="jB6_mRZn_5eLLBD233gM-7" value="f&lt;sub style=&quot;font-size: 14px;&quot;&gt;0&lt;/sub&gt;" style="rounded=0;whiteSpace=wrap;html=1;fillColor=#ffe6cc;strokeColor=#000000;fontSize=14;" vertex="1" parent="1">
          <mxGeometry x="95" y="120" width="40" height="40" as="geometry" />
        </mxCell>
        <mxCell id="jB6_mRZn_5eLLBD233gM-8" value="f&lt;span style=&quot;font-size: 14px;&quot;&gt;&lt;sub style=&quot;font-size: 14px;&quot;&gt;n&lt;/sub&gt;&lt;/span&gt;" style="rounded=0;whiteSpace=wrap;html=1;fillColor=#ffe6cc;strokeColor=#000000;fontSize=14;" vertex="1" parent="1">
          <mxGeometry x="95" y="360" width="40" height="40" as="geometry" />
        </mxCell>
        <mxCell id="jB6_mRZn_5eLLBD233gM-9" value="" style="ellipse;whiteSpace=wrap;html=1;aspect=fixed;strokeColor=#82b366;fillColor=#d5e8d4;" vertex="1" parent="1">
          <mxGeometry x="262" y="155" width="40" height="40" as="geometry" />
        </mxCell>
        <mxCell id="jB6_mRZn_5eLLBD233gM-10" value="" style="ellipse;whiteSpace=wrap;html=1;aspect=fixed;strokeColor=#82b366;fillColor=#d5e8d4;" vertex="1" parent="1">
          <mxGeometry x="262" y="211" width="40" height="40" as="geometry" />
        </mxCell>
        <mxCell id="jB6_mRZn_5eLLBD233gM-11" value="" style="ellipse;whiteSpace=wrap;html=1;aspect=fixed;strokeColor=#82b366;fillColor=#d5e8d4;" vertex="1" parent="1">
          <mxGeometry x="262" y="268" width="40" height="40" as="geometry" />
        </mxCell>
        <mxCell id="jB6_mRZn_5eLLBD233gM-12" value="" style="ellipse;whiteSpace=wrap;html=1;aspect=fixed;strokeColor=#82b366;fillColor=#d5e8d4;" vertex="1" parent="1">
          <mxGeometry x="262" y="325" width="40" height="40" as="geometry" />
        </mxCell>
        <mxCell id="jB6_mRZn_5eLLBD233gM-13" value="" style="ellipse;whiteSpace=wrap;html=1;aspect=fixed;strokeColor=#82b366;fillColor=#d5e8d4;" vertex="1" parent="1">
          <mxGeometry x="322" y="155" width="40" height="40" as="geometry" />
        </mxCell>
        <mxCell id="jB6_mRZn_5eLLBD233gM-14" value="" style="ellipse;whiteSpace=wrap;html=1;aspect=fixed;strokeColor=#82b366;fillColor=#d5e8d4;" vertex="1" parent="1">
          <mxGeometry x="322" y="212" width="40" height="40" as="geometry" />
        </mxCell>
        <mxCell id="jB6_mRZn_5eLLBD233gM-15" value="" style="ellipse;whiteSpace=wrap;html=1;aspect=fixed;strokeColor=#82b366;fillColor=#d5e8d4;" vertex="1" parent="1">
          <mxGeometry x="322" y="268" width="40" height="40" as="geometry" />
        </mxCell>
        <mxCell id="jB6_mRZn_5eLLBD233gM-16" value="" style="ellipse;whiteSpace=wrap;html=1;aspect=fixed;strokeColor=#82b366;fillColor=#d5e8d4;" vertex="1" parent="1">
          <mxGeometry x="322" y="325" width="40" height="40" as="geometry" />
        </mxCell>
        <mxCell id="jB6_mRZn_5eLLBD233gM-17" value="" style="ellipse;whiteSpace=wrap;html=1;aspect=fixed;strokeColor=#b85450;fillColor=#f8cecc;" vertex="1" parent="1">
          <mxGeometry x="381" y="183" width="40" height="40" as="geometry" />
        </mxCell>
        <mxCell id="jB6_mRZn_5eLLBD233gM-18" value="" style="ellipse;whiteSpace=wrap;html=1;aspect=fixed;strokeColor=#b85450;fillColor=#f8cecc;movable=0;resizable=0;rotatable=0;deletable=0;editable=0;locked=1;connectable=0;" vertex="1" parent="1">
          <mxGeometry x="381" y="235" width="40" height="40" as="geometry" />
        </mxCell>
        <mxCell id="jB6_mRZn_5eLLBD233gM-19" value="" style="ellipse;whiteSpace=wrap;html=1;aspect=fixed;strokeColor=#b85450;fillColor=#f8cecc;" vertex="1" parent="1">
          <mxGeometry x="381" y="297" width="40" height="40" as="geometry" />
        </mxCell>
        <mxCell id="jB6_mRZn_5eLLBD233gM-20" value="" style="group" vertex="1" connectable="0" parent="1">
          <mxGeometry x="206" y="211" width="40" height="40" as="geometry" />
        </mxCell>
        <mxCell id="jB6_mRZn_5eLLBD233gM-21" value="" style="ellipse;whiteSpace=wrap;html=1;aspect=fixed;strokeColor=#9673a6;fillColor=#e1d5e7;" vertex="1" parent="jB6_mRZn_5eLLBD233gM-20">
          <mxGeometry width="40" height="40" as="geometry" />
        </mxCell>
        <mxCell id="jB6_mRZn_5eLLBD233gM-22" value="" style="group" vertex="1" connectable="0" parent="1">
          <mxGeometry x="205" y="268" width="40" height="40" as="geometry" />
        </mxCell>
        <mxCell id="jB6_mRZn_5eLLBD233gM-23" value="" style="ellipse;whiteSpace=wrap;html=1;aspect=fixed;strokeColor=#9673a6;fillColor=#e1d5e7;" vertex="1" parent="jB6_mRZn_5eLLBD233gM-22">
          <mxGeometry width="40" height="40" as="geometry" />
        </mxCell>
        <mxCell id="jB6_mRZn_5eLLBD233gM-24" value="" style="endArrow=none;html=1;rounded=0;entryX=0;entryY=1;entryDx=0;entryDy=0;exitX=1;exitY=0;exitDx=0;exitDy=0;" edge="1" parent="1" source="jB6_mRZn_5eLLBD233gM-21" target="jB6_mRZn_5eLLBD233gM-9">
          <mxGeometry width="50" height="50" relative="1" as="geometry">
            <mxPoint x="226" y="189" as="sourcePoint" />
            <mxPoint x="221.85786437626916" y="226.85786437626916" as="targetPoint" />
          </mxGeometry>
        </mxCell>
        <mxCell id="jB6_mRZn_5eLLBD233gM-25" value="" style="endArrow=none;html=1;rounded=0;entryX=0;entryY=0.5;entryDx=0;entryDy=0;exitX=1;exitY=0.5;exitDx=0;exitDy=0;" edge="1" parent="1" source="jB6_mRZn_5eLLBD233gM-21" target="jB6_mRZn_5eLLBD233gM-10">
          <mxGeometry width="50" height="50" relative="1" as="geometry">
            <mxPoint x="198" y="165" as="sourcePoint" />
            <mxPoint x="277.85786437626916" y="199.14213562373084" as="targetPoint" />
          </mxGeometry>
        </mxCell>
        <mxCell id="jB6_mRZn_5eLLBD233gM-26" value="" style="endArrow=none;html=1;rounded=0;entryX=0;entryY=0.5;entryDx=0;entryDy=0;exitX=1;exitY=0.5;exitDx=0;exitDy=0;" edge="1" parent="1" source="jB6_mRZn_5eLLBD233gM-23" target="jB6_mRZn_5eLLBD233gM-11">
          <mxGeometry width="50" height="50" relative="1" as="geometry">
            <mxPoint x="256" y="241" as="sourcePoint" />
            <mxPoint x="272" y="241" as="targetPoint" />
          </mxGeometry>
        </mxCell>
        <mxCell id="jB6_mRZn_5eLLBD233gM-27" value="" style="endArrow=none;html=1;rounded=0;entryX=0;entryY=0.5;entryDx=0;entryDy=0;exitX=1;exitY=1;exitDx=0;exitDy=0;" edge="1" parent="1" source="jB6_mRZn_5eLLBD233gM-23" target="jB6_mRZn_5eLLBD233gM-12">
          <mxGeometry width="50" height="50" relative="1" as="geometry">
            <mxPoint x="250.14213562373084" y="226.85786437626916" as="sourcePoint" />
            <mxPoint x="277.85786437626916" y="199.14213562373084" as="targetPoint" />
          </mxGeometry>
        </mxCell>
        <mxCell id="jB6_mRZn_5eLLBD233gM-28" value="" style="endArrow=none;html=1;rounded=0;entryX=0;entryY=1;entryDx=0;entryDy=0;exitX=1;exitY=0;exitDx=0;exitDy=0;" edge="1" parent="1" source="jB6_mRZn_5eLLBD233gM-23" target="jB6_mRZn_5eLLBD233gM-9">
          <mxGeometry width="50" height="50" relative="1" as="geometry">
            <mxPoint x="250.14213562373084" y="226.85786437626916" as="sourcePoint" />
            <mxPoint x="277.85786437626916" y="199.14213562373084" as="targetPoint" />
          </mxGeometry>
        </mxCell>
        <mxCell id="jB6_mRZn_5eLLBD233gM-29" value="" style="endArrow=none;html=1;rounded=0;entryX=0;entryY=0.5;entryDx=0;entryDy=0;exitX=1;exitY=1;exitDx=0;exitDy=0;" edge="1" parent="1" source="jB6_mRZn_5eLLBD233gM-21" target="jB6_mRZn_5eLLBD233gM-12">
          <mxGeometry width="50" height="50" relative="1" as="geometry">
            <mxPoint x="250.14213562373084" y="226.85786437626916" as="sourcePoint" />
            <mxPoint x="277.85786437626916" y="199.14213562373084" as="targetPoint" />
          </mxGeometry>
        </mxCell>
        <mxCell id="jB6_mRZn_5eLLBD233gM-30" value="" style="endArrow=none;html=1;rounded=0;entryX=0;entryY=0;entryDx=0;entryDy=0;exitX=1;exitY=1;exitDx=0;exitDy=0;" edge="1" parent="1" source="jB6_mRZn_5eLLBD233gM-21" target="jB6_mRZn_5eLLBD233gM-11">
          <mxGeometry width="50" height="50" relative="1" as="geometry">
            <mxPoint x="258" y="255" as="sourcePoint" />
            <mxPoint x="272" y="355" as="targetPoint" />
          </mxGeometry>
        </mxCell>
        <mxCell id="jB6_mRZn_5eLLBD233gM-31" value="" style="endArrow=none;html=1;rounded=0;entryX=0;entryY=1;entryDx=0;entryDy=0;exitX=1;exitY=0;exitDx=0;exitDy=0;" edge="1" parent="1" source="jB6_mRZn_5eLLBD233gM-23" target="jB6_mRZn_5eLLBD233gM-10">
          <mxGeometry width="50" height="50" relative="1" as="geometry">
            <mxPoint x="208" y="135" as="sourcePoint" />
            <mxPoint x="277.85786437626916" y="199.14213562373084" as="targetPoint" />
          </mxGeometry>
        </mxCell>
        <mxCell id="jB6_mRZn_5eLLBD233gM-32" value="" style="endArrow=none;html=1;rounded=0;exitX=1;exitY=0.5;exitDx=0;exitDy=0;entryX=0;entryY=0.5;entryDx=0;entryDy=0;" edge="1" parent="1" source="jB6_mRZn_5eLLBD233gM-9" target="jB6_mRZn_5eLLBD233gM-13">
          <mxGeometry width="50" height="50" relative="1" as="geometry">
            <mxPoint x="288" y="125" as="sourcePoint" />
            <mxPoint x="338" y="75" as="targetPoint" />
          </mxGeometry>
        </mxCell>
        <mxCell id="jB6_mRZn_5eLLBD233gM-33" value="" style="endArrow=none;html=1;rounded=0;exitX=1;exitY=1;exitDx=0;exitDy=0;entryX=0;entryY=0;entryDx=0;entryDy=0;" edge="1" parent="1" source="jB6_mRZn_5eLLBD233gM-9" target="jB6_mRZn_5eLLBD233gM-14">
          <mxGeometry width="50" height="50" relative="1" as="geometry">
            <mxPoint x="258" y="135" as="sourcePoint" />
            <mxPoint x="308" y="85" as="targetPoint" />
          </mxGeometry>
        </mxCell>
        <mxCell id="jB6_mRZn_5eLLBD233gM-34" value="" style="endArrow=none;html=1;rounded=0;entryX=0;entryY=0;entryDx=0;entryDy=0;" edge="1" parent="1" target="jB6_mRZn_5eLLBD233gM-15">
          <mxGeometry width="50" height="50" relative="1" as="geometry">
            <mxPoint x="298" y="185" as="sourcePoint" />
            <mxPoint x="337.85786437626916" y="227.85786437626916" as="targetPoint" />
          </mxGeometry>
        </mxCell>
        <mxCell id="jB6_mRZn_5eLLBD233gM-35" value="" style="endArrow=none;html=1;rounded=0;entryX=0;entryY=0;entryDx=0;entryDy=0;exitX=1;exitY=1;exitDx=0;exitDy=0;" edge="1" parent="1" source="jB6_mRZn_5eLLBD233gM-9" target="jB6_mRZn_5eLLBD233gM-16">
          <mxGeometry width="50" height="50" relative="1" as="geometry">
            <mxPoint x="308" y="195" as="sourcePoint" />
            <mxPoint x="337.85786437626916" y="283.85786437626916" as="targetPoint" />
          </mxGeometry>
        </mxCell>
        <mxCell id="jB6_mRZn_5eLLBD233gM-36" value="" style="endArrow=none;html=1;rounded=0;entryX=0;entryY=0.5;entryDx=0;entryDy=0;exitX=1;exitY=1;exitDx=0;exitDy=0;" edge="1" parent="1" source="jB6_mRZn_5eLLBD233gM-10" target="jB6_mRZn_5eLLBD233gM-15">
          <mxGeometry width="50" height="50" relative="1" as="geometry">
            <mxPoint x="318" y="205" as="sourcePoint" />
            <mxPoint x="347.85786437626916" y="293.85786437626916" as="targetPoint" />
          </mxGeometry>
        </mxCell>
        <mxCell id="jB6_mRZn_5eLLBD233gM-37" value="" style="endArrow=none;html=1;rounded=0;entryX=0;entryY=0;entryDx=0;entryDy=0;exitX=1;exitY=1;exitDx=0;exitDy=0;" edge="1" parent="1" source="jB6_mRZn_5eLLBD233gM-10" target="jB6_mRZn_5eLLBD233gM-16">
          <mxGeometry width="50" height="50" relative="1" as="geometry">
            <mxPoint x="306.14213562373084" y="255.14213562373084" as="sourcePoint" />
            <mxPoint x="332" y="298" as="targetPoint" />
          </mxGeometry>
        </mxCell>
        <mxCell id="jB6_mRZn_5eLLBD233gM-38" value="" style="endArrow=none;html=1;rounded=0;entryX=0;entryY=0.5;entryDx=0;entryDy=0;exitX=1;exitY=0.5;exitDx=0;exitDy=0;" edge="1" parent="1" source="jB6_mRZn_5eLLBD233gM-10" target="jB6_mRZn_5eLLBD233gM-14">
          <mxGeometry width="50" height="50" relative="1" as="geometry">
            <mxPoint x="306.14213562373084" y="255.14213562373084" as="sourcePoint" />
            <mxPoint x="337.85786437626916" y="340.85786437626916" as="targetPoint" />
          </mxGeometry>
        </mxCell>
        <mxCell id="jB6_mRZn_5eLLBD233gM-39" value="" style="endArrow=none;html=1;rounded=0;entryX=0;entryY=0.5;entryDx=0;entryDy=0;exitX=1;exitY=0.5;exitDx=0;exitDy=0;" edge="1" parent="1" source="jB6_mRZn_5eLLBD233gM-11" target="jB6_mRZn_5eLLBD233gM-15">
          <mxGeometry width="50" height="50" relative="1" as="geometry">
            <mxPoint x="312" y="241" as="sourcePoint" />
            <mxPoint x="332" y="242" as="targetPoint" />
          </mxGeometry>
        </mxCell>
        <mxCell id="jB6_mRZn_5eLLBD233gM-40" value="" style="endArrow=none;html=1;rounded=0;entryX=0;entryY=0;entryDx=0;entryDy=0;exitX=1;exitY=1;exitDx=0;exitDy=0;" edge="1" parent="1" source="jB6_mRZn_5eLLBD233gM-11" target="jB6_mRZn_5eLLBD233gM-16">
          <mxGeometry width="50" height="50" relative="1" as="geometry">
            <mxPoint x="312" y="298" as="sourcePoint" />
            <mxPoint x="332" y="298" as="targetPoint" />
          </mxGeometry>
        </mxCell>
        <mxCell id="jB6_mRZn_5eLLBD233gM-41" value="" style="endArrow=none;html=1;rounded=0;exitX=1;exitY=0.5;exitDx=0;exitDy=0;entryX=0;entryY=0.5;entryDx=0;entryDy=0;" edge="1" parent="1" source="jB6_mRZn_5eLLBD233gM-12" target="jB6_mRZn_5eLLBD233gM-16">
          <mxGeometry width="50" height="50" relative="1" as="geometry">
            <mxPoint x="306.14213562373084" y="312.14213562373084" as="sourcePoint" />
            <mxPoint x="318" y="365" as="targetPoint" />
          </mxGeometry>
        </mxCell>
        <mxCell id="jB6_mRZn_5eLLBD233gM-42" value="" style="endArrow=none;html=1;rounded=0;exitX=1;exitY=0;exitDx=0;exitDy=0;entryX=0;entryY=1;entryDx=0;entryDy=0;" edge="1" parent="1" source="jB6_mRZn_5eLLBD233gM-12" target="jB6_mRZn_5eLLBD233gM-15">
          <mxGeometry width="50" height="50" relative="1" as="geometry">
            <mxPoint x="312" y="355" as="sourcePoint" />
            <mxPoint x="332" y="355" as="targetPoint" />
          </mxGeometry>
        </mxCell>
        <mxCell id="jB6_mRZn_5eLLBD233gM-43" value="" style="endArrow=none;html=1;rounded=0;exitX=1;exitY=0;exitDx=0;exitDy=0;entryX=0;entryY=1;entryDx=0;entryDy=0;" edge="1" parent="1" source="jB6_mRZn_5eLLBD233gM-12" target="jB6_mRZn_5eLLBD233gM-14">
          <mxGeometry width="50" height="50" relative="1" as="geometry">
            <mxPoint x="306.14213562373084" y="340.85786437626916" as="sourcePoint" />
            <mxPoint x="337.85786437626916" y="312.14213562373084" as="targetPoint" />
          </mxGeometry>
        </mxCell>
        <mxCell id="jB6_mRZn_5eLLBD233gM-44" value="" style="endArrow=none;html=1;rounded=0;exitX=1;exitY=0;exitDx=0;exitDy=0;entryX=0;entryY=1;entryDx=0;entryDy=0;" edge="1" parent="1" source="jB6_mRZn_5eLLBD233gM-12" target="jB6_mRZn_5eLLBD233gM-13">
          <mxGeometry width="50" height="50" relative="1" as="geometry">
            <mxPoint x="306.14213562373084" y="340.85786437626916" as="sourcePoint" />
            <mxPoint x="337.85786437626916" y="256.14213562373084" as="targetPoint" />
          </mxGeometry>
        </mxCell>
        <mxCell id="jB6_mRZn_5eLLBD233gM-45" value="" style="endArrow=none;html=1;rounded=0;exitX=1;exitY=0;exitDx=0;exitDy=0;entryX=0;entryY=1;entryDx=0;entryDy=0;" edge="1" parent="1" source="jB6_mRZn_5eLLBD233gM-11" target="jB6_mRZn_5eLLBD233gM-14">
          <mxGeometry width="50" height="50" relative="1" as="geometry">
            <mxPoint x="306.14213562373084" y="340.85786437626916" as="sourcePoint" />
            <mxPoint x="337.85786437626916" y="199.14213562373084" as="targetPoint" />
          </mxGeometry>
        </mxCell>
        <mxCell id="jB6_mRZn_5eLLBD233gM-46" value="" style="endArrow=none;html=1;rounded=0;exitX=1;exitY=0;exitDx=0;exitDy=0;entryX=0;entryY=1;entryDx=0;entryDy=0;" edge="1" parent="1" source="jB6_mRZn_5eLLBD233gM-11" target="jB6_mRZn_5eLLBD233gM-13">
          <mxGeometry width="50" height="50" relative="1" as="geometry">
            <mxPoint x="306.14213562373084" y="283.85786437626916" as="sourcePoint" />
            <mxPoint x="337.85786437626916" y="256.14213562373084" as="targetPoint" />
          </mxGeometry>
        </mxCell>
        <mxCell id="jB6_mRZn_5eLLBD233gM-47" value="" style="endArrow=none;html=1;rounded=0;exitX=1;exitY=0;exitDx=0;exitDy=0;entryX=0;entryY=1;entryDx=0;entryDy=0;" edge="1" parent="1" source="jB6_mRZn_5eLLBD233gM-10" target="jB6_mRZn_5eLLBD233gM-13">
          <mxGeometry width="50" height="50" relative="1" as="geometry">
            <mxPoint x="316.14213562373084" y="293.85786437626916" as="sourcePoint" />
            <mxPoint x="347.85786437626916" y="266.14213562373084" as="targetPoint" />
          </mxGeometry>
        </mxCell>
        <mxCell id="jB6_mRZn_5eLLBD233gM-48" value="" style="endArrow=none;html=1;rounded=0;exitX=1;exitY=0.5;exitDx=0;exitDy=0;entryX=0;entryY=0.5;entryDx=0;entryDy=0;" edge="1" parent="1" source="jB6_mRZn_5eLLBD233gM-13" target="jB6_mRZn_5eLLBD233gM-17">
          <mxGeometry width="50" height="50" relative="1" as="geometry">
            <mxPoint x="326.14213562373084" y="303.85786437626916" as="sourcePoint" />
            <mxPoint x="357.85786437626916" y="276.14213562373084" as="targetPoint" />
          </mxGeometry>
        </mxCell>
        <mxCell id="jB6_mRZn_5eLLBD233gM-49" value="" style="endArrow=none;html=1;rounded=0;exitX=0;exitY=0.5;exitDx=0;exitDy=0;entryX=1;entryY=0.5;entryDx=0;entryDy=0;" edge="1" parent="1" source="jB6_mRZn_5eLLBD233gM-17" target="jB6_mRZn_5eLLBD233gM-14">
          <mxGeometry width="50" height="50" relative="1" as="geometry">
            <mxPoint x="372" y="185" as="sourcePoint" />
            <mxPoint x="391" y="213" as="targetPoint" />
          </mxGeometry>
        </mxCell>
        <mxCell id="jB6_mRZn_5eLLBD233gM-50" value="" style="endArrow=none;html=1;rounded=0;exitX=0;exitY=0.5;exitDx=0;exitDy=0;entryX=1;entryY=0.5;entryDx=0;entryDy=0;" edge="1" parent="1" source="jB6_mRZn_5eLLBD233gM-19" target="jB6_mRZn_5eLLBD233gM-15">
          <mxGeometry width="50" height="50" relative="1" as="geometry">
            <mxPoint x="391" y="213" as="sourcePoint" />
            <mxPoint x="372" y="242" as="targetPoint" />
          </mxGeometry>
        </mxCell>
        <mxCell id="jB6_mRZn_5eLLBD233gM-51" value="" style="endArrow=none;html=1;rounded=0;exitX=0;exitY=0.5;exitDx=0;exitDy=0;entryX=1;entryY=0.5;entryDx=0;entryDy=0;" edge="1" parent="1" source="jB6_mRZn_5eLLBD233gM-19" target="jB6_mRZn_5eLLBD233gM-16">
          <mxGeometry width="50" height="50" relative="1" as="geometry">
            <mxPoint x="391" y="327" as="sourcePoint" />
            <mxPoint x="372" y="298" as="targetPoint" />
          </mxGeometry>
        </mxCell>
        <mxCell id="jB6_mRZn_5eLLBD233gM-52" value="" style="endArrow=none;html=1;rounded=0;entryX=1;entryY=0;entryDx=0;entryDy=0;" edge="1" parent="1" target="jB6_mRZn_5eLLBD233gM-16">
          <mxGeometry width="50" height="50" relative="1" as="geometry">
            <mxPoint x="387" y="270" as="sourcePoint" />
            <mxPoint x="372" y="355" as="targetPoint" />
          </mxGeometry>
        </mxCell>
        <mxCell id="jB6_mRZn_5eLLBD233gM-53" value="" style="endArrow=none;html=1;rounded=0;exitX=0;exitY=1;exitDx=0;exitDy=0;entryX=1;entryY=0;entryDx=0;entryDy=0;" edge="1" parent="1" source="jB6_mRZn_5eLLBD233gM-17" target="jB6_mRZn_5eLLBD233gM-15">
          <mxGeometry width="50" height="50" relative="1" as="geometry">
            <mxPoint x="396.85786437626916" y="284.14213562373084" as="sourcePoint" />
            <mxPoint x="366.14213562373084" y="340.85786437626916" as="targetPoint" />
          </mxGeometry>
        </mxCell>
        <mxCell id="jB6_mRZn_5eLLBD233gM-54" value="" style="endArrow=none;html=1;rounded=0;exitX=0;exitY=0.5;exitDx=0;exitDy=0;entryX=1;entryY=1;entryDx=0;entryDy=0;" edge="1" parent="1" target="jB6_mRZn_5eLLBD233gM-14">
          <mxGeometry width="50" height="50" relative="1" as="geometry">
            <mxPoint x="381" y="260" as="sourcePoint" />
            <mxPoint x="366.14213562373084" y="283.85786437626916" as="targetPoint" />
          </mxGeometry>
        </mxCell>
        <mxCell id="jB6_mRZn_5eLLBD233gM-55" value="" style="endArrow=none;html=1;rounded=0;entryX=1;entryY=0;entryDx=0;entryDy=0;exitX=0;exitY=0.5;exitDx=0;exitDy=0;" edge="1" parent="1" target="jB6_mRZn_5eLLBD233gM-15">
          <mxGeometry width="50" height="50" relative="1" as="geometry">
            <mxPoint x="381" y="260" as="sourcePoint" />
            <mxPoint x="366.14213562373084" y="256.14213562373084" as="targetPoint" />
          </mxGeometry>
        </mxCell>
        <mxCell id="jB6_mRZn_5eLLBD233gM-56" value="" style="endArrow=none;html=1;rounded=0;entryX=1;entryY=1;entryDx=0;entryDy=0;" edge="1" parent="1" target="jB6_mRZn_5eLLBD233gM-13">
          <mxGeometry width="50" height="50" relative="1" as="geometry">
            <mxPoint x="385" y="240" as="sourcePoint" />
            <mxPoint x="376.14213562373084" y="266.14213562373084" as="targetPoint" />
          </mxGeometry>
        </mxCell>
        <mxCell id="jB6_mRZn_5eLLBD233gM-57" value="" style="endArrow=none;html=1;rounded=0;entryX=1;entryY=1;entryDx=0;entryDy=0;exitX=0;exitY=0;exitDx=0;exitDy=0;" edge="1" parent="1" source="jB6_mRZn_5eLLBD233gM-19" target="jB6_mRZn_5eLLBD233gM-13">
          <mxGeometry width="50" height="50" relative="1" as="geometry">
            <mxPoint x="396.85786437626916" y="255.85786437626916" as="sourcePoint" />
            <mxPoint x="366.14213562373084" y="199.14213562373084" as="targetPoint" />
          </mxGeometry>
        </mxCell>
        <mxCell id="jB6_mRZn_5eLLBD233gM-58" value="" style="endArrow=none;html=1;rounded=0;entryX=1;entryY=1;entryDx=0;entryDy=0;exitX=0;exitY=0;exitDx=0;exitDy=0;" edge="1" parent="1" source="jB6_mRZn_5eLLBD233gM-19" target="jB6_mRZn_5eLLBD233gM-14">
          <mxGeometry width="50" height="50" relative="1" as="geometry">
            <mxPoint x="406.85786437626916" y="265.85786437626916" as="sourcePoint" />
            <mxPoint x="376.14213562373084" y="209.14213562373084" as="targetPoint" />
          </mxGeometry>
        </mxCell>
        <mxCell id="jB6_mRZn_5eLLBD233gM-59" value="" style="endArrow=none;html=1;rounded=0;entryX=1;entryY=0;entryDx=0;entryDy=0;exitX=0;exitY=1;exitDx=0;exitDy=0;" edge="1" parent="1" source="jB6_mRZn_5eLLBD233gM-17" target="jB6_mRZn_5eLLBD233gM-16">
          <mxGeometry width="50" height="50" relative="1" as="geometry">
            <mxPoint x="416.85786437626916" y="275.85786437626916" as="sourcePoint" />
            <mxPoint x="386.14213562373084" y="219.14213562373084" as="targetPoint" />
          </mxGeometry>
        </mxCell>
        <mxCell id="jB6_mRZn_5eLLBD233gM-60" value="&lt;b style=&quot;font-size: 13px;&quot;&gt;State Representation&lt;/b&gt;" style="text;html=1;align=center;verticalAlign=middle;resizable=0;points=[];autosize=1;strokeColor=none;fillColor=none;fontSize=13;" vertex="1" parent="1">
          <mxGeometry x="40" y="90" width="150" height="30" as="geometry" />
        </mxCell>
        <mxCell id="jB6_mRZn_5eLLBD233gM-61" value="-4.6" style="rounded=0;whiteSpace=wrap;html=1;fillColor=#dae8fc;strokeColor=#000000;fontSize=14;" vertex="1" parent="1">
          <mxGeometry x="495" y="160" width="40" height="40" as="geometry" />
        </mxCell>
        <mxCell id="jB6_mRZn_5eLLBD233gM-62" value="-2.2" style="rounded=0;whiteSpace=wrap;html=1;fillColor=#dae8fc;strokeColor=#000000;fontSize=14;" vertex="1" parent="1">
          <mxGeometry x="495" y="200" width="40" height="40" as="geometry" />
        </mxCell>
        <mxCell id="jB6_mRZn_5eLLBD233gM-63" style="edgeStyle=orthogonalEdgeStyle;rounded=0;orthogonalLoop=1;jettySize=auto;html=1;entryX=0;entryY=0.5;entryDx=0;entryDy=0;" edge="1" parent="1" source="jB6_mRZn_5eLLBD233gM-64" target="jB6_mRZn_5eLLBD233gM-72">
          <mxGeometry relative="1" as="geometry" />
        </mxCell>
        <mxCell id="jB6_mRZn_5eLLBD233gM-64" value="-0.65" style="rounded=0;whiteSpace=wrap;html=1;fillColor=#dae8fc;strokeColor=#000000;fontSize=14;" vertex="1" parent="1">
          <mxGeometry x="495" y="240" width="40" height="40" as="geometry" />
        </mxCell>
        <mxCell id="jB6_mRZn_5eLLBD233gM-65" value="-1.13" style="rounded=0;whiteSpace=wrap;html=1;fillColor=#dae8fc;strokeColor=#000000;fontSize=14;" vertex="1" parent="1">
          <mxGeometry x="495" y="280" width="40" height="40" as="geometry" />
        </mxCell>
        <mxCell id="jB6_mRZn_5eLLBD233gM-66" value="-3.21" style="rounded=0;whiteSpace=wrap;html=1;fillColor=#dae8fc;strokeColor=#000000;fontSize=14;" vertex="1" parent="1">
          <mxGeometry x="495" y="320" width="40" height="40" as="geometry" />
        </mxCell>
        <mxCell id="jB6_mRZn_5eLLBD233gM-67" style="edgeStyle=orthogonalEdgeStyle;rounded=0;orthogonalLoop=1;jettySize=auto;html=1;" edge="1" parent="1">
          <mxGeometry relative="1" as="geometry">
            <mxPoint x="495" y="259.83000000000004" as="targetPoint" />
            <mxPoint x="435" y="259.83000000000004" as="sourcePoint" />
          </mxGeometry>
        </mxCell>
        <mxCell id="jB6_mRZn_5eLLBD233gM-68" value="&lt;b style=&quot;font-size: 13px;&quot;&gt;Logits&lt;/b&gt;" style="text;html=1;align=center;verticalAlign=middle;resizable=0;points=[];autosize=1;strokeColor=none;fillColor=none;fontSize=13;" vertex="1" parent="1">
          <mxGeometry x="485" y="130" width="60" height="30" as="geometry" />
        </mxCell>
        <mxCell id="jB6_mRZn_5eLLBD233gM-69" value="0.01" style="rounded=0;whiteSpace=wrap;html=1;fillColor=#dae8fc;strokeColor=#000000;fontSize=14;" vertex="1" parent="1">
          <mxGeometry x="620" y="160" width="40" height="40" as="geometry" />
        </mxCell>
        <mxCell id="jB6_mRZn_5eLLBD233gM-70" value="0.11" style="rounded=0;whiteSpace=wrap;html=1;fillColor=#dae8fc;strokeColor=#000000;fontSize=14;" vertex="1" parent="1">
          <mxGeometry x="620" y="200" width="40" height="40" as="geometry" />
        </mxCell>
        <mxCell id="jB6_mRZn_5eLLBD233gM-71" style="edgeStyle=orthogonalEdgeStyle;rounded=0;orthogonalLoop=1;jettySize=auto;html=1;exitX=1;exitY=0.5;exitDx=0;exitDy=0;" edge="1" parent="1" source="jB6_mRZn_5eLLBD233gM-72" target="jB6_mRZn_5eLLBD233gM-79">
          <mxGeometry relative="1" as="geometry" />
        </mxCell>
        <mxCell id="jB6_mRZn_5eLLBD233gM-72" value="0.52" style="rounded=0;whiteSpace=wrap;html=1;fillColor=#dae8fc;strokeColor=#000000;fontSize=14;" vertex="1" parent="1">
          <mxGeometry x="620" y="240" width="40" height="40" as="geometry" />
        </mxCell>
        <mxCell id="jB6_mRZn_5eLLBD233gM-73" value="0.32" style="rounded=0;whiteSpace=wrap;html=1;fillColor=#dae8fc;strokeColor=#000000;fontSize=14;" vertex="1" parent="1">
          <mxGeometry x="620" y="280" width="40" height="40" as="geometry" />
        </mxCell>
        <mxCell id="jB6_mRZn_5eLLBD233gM-74" value="0.04" style="rounded=0;whiteSpace=wrap;html=1;fillColor=#dae8fc;strokeColor=#000000;fontSize=14;" vertex="1" parent="1">
          <mxGeometry x="620" y="320" width="40" height="40" as="geometry" />
        </mxCell>
        <mxCell id="jB6_mRZn_5eLLBD233gM-75" value="&lt;b style=&quot;font-size: 13px;&quot;&gt;Action Probabilites&lt;/b&gt;" style="text;html=1;align=center;verticalAlign=middle;resizable=0;points=[];autosize=1;strokeColor=none;fillColor=none;fontSize=13;" vertex="1" parent="1">
          <mxGeometry x="570" y="130" width="140" height="30" as="geometry" />
        </mxCell>
        <mxCell id="jB6_mRZn_5eLLBD233gM-76" value="&lt;b style=&quot;font-size: 13px;&quot;&gt;Simplified Neural Network Architecture&lt;/b&gt;" style="text;html=1;align=center;verticalAlign=middle;resizable=0;points=[];autosize=1;strokeColor=none;fillColor=none;fontSize=13;" vertex="1" parent="1">
          <mxGeometry x="190" y="120" width="260" height="30" as="geometry" />
        </mxCell>
        <mxCell id="jB6_mRZn_5eLLBD233gM-77" value="0.01" style="rounded=0;whiteSpace=wrap;html=1;fillColor=#dae8fc;strokeColor=#000000;fontSize=14;" vertex="1" parent="1">
          <mxGeometry x="765" y="160" width="40" height="40" as="geometry" />
        </mxCell>
        <mxCell id="jB6_mRZn_5eLLBD233gM-78" value="0" style="rounded=0;whiteSpace=wrap;html=1;fillColor=#999999;strokeColor=#000000;fontSize=14;" vertex="1" parent="1">
          <mxGeometry x="765" y="200" width="40" height="40" as="geometry" />
        </mxCell>
        <mxCell id="jB6_mRZn_5eLLBD233gM-79" value="0" style="rounded=0;whiteSpace=wrap;html=1;fillColor=#999999;strokeColor=#000000;fontSize=14;" vertex="1" parent="1">
          <mxGeometry x="765" y="240" width="40" height="40" as="geometry" />
        </mxCell>
        <mxCell id="jB6_mRZn_5eLLBD233gM-80" value="0.32" style="rounded=0;whiteSpace=wrap;html=1;fillColor=#dae8fc;strokeColor=#000000;fontSize=14;" vertex="1" parent="1">
          <mxGeometry x="765" y="280" width="40" height="40" as="geometry" />
        </mxCell>
        <mxCell id="jB6_mRZn_5eLLBD233gM-81" value="0" style="rounded=0;whiteSpace=wrap;html=1;fillColor=#999999;strokeColor=#000000;fontSize=14;" vertex="1" parent="1">
          <mxGeometry x="765" y="320" width="40" height="40" as="geometry" />
        </mxCell>
        <mxCell id="jB6_mRZn_5eLLBD233gM-82" value="&lt;b style=&quot;font-size: 13px;&quot;&gt;Masked&amp;nbsp;&lt;/b&gt;&lt;div&gt;&lt;b style=&quot;font-size: 13px;&quot;&gt;Action Probabilities&lt;/b&gt;&lt;/div&gt;" style="text;html=1;align=center;verticalAlign=middle;resizable=0;points=[];autosize=1;strokeColor=none;fillColor=none;fontSize=13;" vertex="1" parent="1">
          <mxGeometry x="715" y="120" width="150" height="40" as="geometry" />
        </mxCell>
        <mxCell id="jB6_mRZn_5eLLBD233gM-83" value="Masking" style="text;html=1;align=center;verticalAlign=middle;resizable=0;points=[];autosize=1;strokeColor=none;fillColor=none;fontSize=14;" vertex="1" parent="1">
          <mxGeometry x="670" y="230" width="80" height="30" as="geometry" />
        </mxCell>
        <mxCell id="jB6_mRZn_5eLLBD233gM-84" value="Exp" style="text;html=1;align=center;verticalAlign=middle;resizable=0;points=[];autosize=1;strokeColor=none;fillColor=none;fontSize=14;" vertex="1" parent="1">
          <mxGeometry x="550" y="230" width="50" height="30" as="geometry" />
        </mxCell>
        <mxCell id="jB6_mRZn_5eLLBD233gM-85" style="edgeStyle=orthogonalEdgeStyle;rounded=0;orthogonalLoop=1;jettySize=auto;html=1;exitX=0.5;exitY=1;exitDx=0;exitDy=0;entryX=0.495;entryY=1.062;entryDx=0;entryDy=0;entryPerimeter=0;" edge="1" parent="1" target="jB6_mRZn_5eLLBD233gM-83">
          <mxGeometry relative="1" as="geometry">
            <mxPoint x="115" y="413.55000000000007" as="sourcePoint" />
            <mxPoint x="708.74" y="268.0000000000001" as="targetPoint" />
            <Array as="points">
              <mxPoint x="115" y="434" />
              <mxPoint x="709" y="434" />
              <mxPoint x="709" y="274" />
              <mxPoint x="710" y="274" />
            </Array>
          </mxGeometry>
        </mxCell>
        <mxCell id="jB6_mRZn_5eLLBD233gM-86" value="Invalid Action Masking" style="text;html=1;align=center;verticalAlign=middle;resizable=0;points=[];autosize=1;strokeColor=none;fillColor=none;fontSize=14;" vertex="1" parent="1">
          <mxGeometry x="321" y="400" width="160" height="30" as="geometry" />
        </mxCell>
        <mxCell id="jB6_mRZn_5eLLBD233gM-87" value="$$\pi_{\theta}^m(\cdot | s)$$" style="text;html=1;align=center;verticalAlign=middle;resizable=0;points=[];autosize=1;strokeColor=none;fillColor=none;fontSize=14;" vertex="1" parent="1">
          <mxGeometry x="845" y="360" width="200" height="30" as="geometry" />
        </mxCell>
        <mxCell id="jB6_mRZn_5eLLBD233gM-88" value="$$e^{(l_{\theta}(\cdot | s))}$$" style="text;html=1;align=center;verticalAlign=middle;resizable=0;points=[];autosize=1;strokeColor=none;fillColor=none;fontSize=14;" vertex="1" parent="1">
          <mxGeometry x="540" y="360" width="200" height="30" as="geometry" />
        </mxCell>
        <mxCell id="jB6_mRZn_5eLLBD233gM-89" value="$$l_{\theta}(\cdot | s)$$" style="text;html=1;align=center;verticalAlign=middle;resizable=0;points=[];autosize=1;strokeColor=none;fillColor=none;fontSize=14;" vertex="1" parent="1">
          <mxGeometry x="430" y="360" width="170" height="30" as="geometry" />
        </mxCell>
        <mxCell id="jB6_mRZn_5eLLBD233gM-90" value="$$m(\cdot | s)$$" style="text;html=1;align=center;verticalAlign=middle;resizable=0;points=[];autosize=1;strokeColor=none;fillColor=none;fontSize=14;" vertex="1" parent="1">
          <mxGeometry x="341" y="440" width="120" height="30" as="geometry" />
        </mxCell>
        <mxCell id="jB6_mRZn_5eLLBD233gM-91" value="$$m(e^{(l_{\theta}(\cdot | s))})$$" style="text;html=1;align=center;verticalAlign=middle;resizable=0;points=[];autosize=1;strokeColor=none;fillColor=none;fontSize=14;" vertex="1" parent="1">
          <mxGeometry x="675" y="360" width="220" height="30" as="geometry" />
        </mxCell>
        <mxCell id="jB6_mRZn_5eLLBD233gM-92" value="0.04" style="rounded=0;whiteSpace=wrap;html=1;fillColor=#dae8fc;strokeColor=#000000;fontSize=14;" vertex="1" parent="1">
          <mxGeometry x="925" y="160" width="40" height="40" as="geometry" />
        </mxCell>
        <mxCell id="jB6_mRZn_5eLLBD233gM-93" value="0" style="rounded=0;whiteSpace=wrap;html=1;fillColor=#999999;strokeColor=#000000;fontSize=14;" vertex="1" parent="1">
          <mxGeometry x="925" y="200" width="40" height="40" as="geometry" />
        </mxCell>
        <mxCell id="jB6_mRZn_5eLLBD233gM-94" value="0" style="rounded=0;whiteSpace=wrap;html=1;fillColor=#999999;strokeColor=#000000;fontSize=14;" vertex="1" parent="1">
          <mxGeometry x="925" y="240" width="40" height="40" as="geometry" />
        </mxCell>
        <mxCell id="jB6_mRZn_5eLLBD233gM-95" value="0.96" style="rounded=0;whiteSpace=wrap;html=1;fillColor=#d5e8d4;strokeColor=#000000;fontSize=14;" vertex="1" parent="1">
          <mxGeometry x="925" y="280" width="40" height="40" as="geometry" />
        </mxCell>
        <mxCell id="jB6_mRZn_5eLLBD233gM-96" value="0" style="rounded=0;whiteSpace=wrap;html=1;fillColor=#999999;strokeColor=#000000;fontSize=14;" vertex="1" parent="1">
          <mxGeometry x="925" y="320" width="40" height="40" as="geometry" />
        </mxCell>
        <mxCell id="jB6_mRZn_5eLLBD233gM-97" value="a&lt;span style=&quot;font-size: 14px;&quot;&gt;&lt;sub style=&quot;font-size: 14px;&quot;&gt;0&lt;/sub&gt;&lt;/span&gt;" style="text;html=1;align=center;verticalAlign=middle;resizable=0;points=[];autosize=1;strokeColor=none;fillColor=none;fontSize=14;" vertex="1" parent="1">
          <mxGeometry x="965" y="165" width="40" height="30" as="geometry" />
        </mxCell>
        <mxCell id="jB6_mRZn_5eLLBD233gM-98" value="a&lt;span style=&quot;font-size: 14px;&quot;&gt;&lt;sub style=&quot;font-size: 14px;&quot;&gt;4&lt;/sub&gt;&lt;/span&gt;" style="text;html=1;align=center;verticalAlign=middle;resizable=0;points=[];autosize=1;strokeColor=none;fillColor=none;fontSize=14;" vertex="1" parent="1">
          <mxGeometry x="965" y="325" width="40" height="30" as="geometry" />
        </mxCell>
        <mxCell id="jB6_mRZn_5eLLBD233gM-99" value="a&lt;sub style=&quot;font-size: 14px;&quot;&gt;1&lt;/sub&gt;" style="text;html=1;align=center;verticalAlign=middle;resizable=0;points=[];autosize=1;strokeColor=none;fillColor=none;fontSize=14;" vertex="1" parent="1">
          <mxGeometry x="965" y="205" width="40" height="30" as="geometry" />
        </mxCell>
        <mxCell id="jB6_mRZn_5eLLBD233gM-100" value="a&lt;span style=&quot;font-size: 14px;&quot;&gt;&lt;sub style=&quot;font-size: 14px;&quot;&gt;2&lt;/sub&gt;&lt;/span&gt;" style="text;html=1;align=center;verticalAlign=middle;resizable=0;points=[];autosize=1;strokeColor=none;fillColor=none;fontSize=14;" vertex="1" parent="1">
          <mxGeometry x="965" y="245" width="40" height="30" as="geometry" />
        </mxCell>
        <mxCell id="jB6_mRZn_5eLLBD233gM-101" value="a&lt;span style=&quot;font-size: 14px;&quot;&gt;&lt;sub style=&quot;font-size: 14px;&quot;&gt;3&lt;/sub&gt;&lt;/span&gt;" style="text;html=1;align=center;verticalAlign=middle;resizable=0;points=[];autosize=1;strokeColor=none;fillColor=none;fontSize=14;" vertex="1" parent="1">
          <mxGeometry x="965" y="285" width="40" height="30" as="geometry" />
        </mxCell>
        <mxCell id="jB6_mRZn_5eLLBD233gM-102" style="edgeStyle=orthogonalEdgeStyle;rounded=0;orthogonalLoop=1;jettySize=auto;html=1;entryX=0;entryY=0.5;entryDx=0;entryDy=0;" edge="1" parent="1" target="jB6_mRZn_5eLLBD233gM-94">
          <mxGeometry relative="1" as="geometry">
            <mxPoint x="805" y="260" as="sourcePoint" />
            <mxPoint x="890" y="260" as="targetPoint" />
          </mxGeometry>
        </mxCell>
        <mxCell id="jB6_mRZn_5eLLBD233gM-103" value="Normalization" style="text;html=1;align=center;verticalAlign=middle;resizable=0;points=[];autosize=1;strokeColor=none;fillColor=none;fontSize=14;" vertex="1" parent="1">
          <mxGeometry x="810" y="230" width="110" height="30" as="geometry" />
        </mxCell>
        <mxCell id="jB6_mRZn_5eLLBD233gM-104" value="&lt;b style=&quot;font-size: 13px;&quot;&gt;Action Distribution&lt;/b&gt;" style="text;html=1;align=center;verticalAlign=middle;resizable=0;points=[];autosize=1;strokeColor=none;fillColor=none;fontSize=13;" vertex="1" parent="1">
          <mxGeometry x="875" y="130" width="140" height="30" as="geometry" />
        </mxCell>
        <mxCell id="jB6_mRZn_5eLLBD233gM-105" value="$$\pi_{\theta}^m(\cdot | s)$$" style="text;html=1;align=center;verticalAlign=middle;resizable=0;points=[];autosize=1;strokeColor=none;fillColor=none;fontSize=14;" vertex="1" parent="1">
          <mxGeometry x="990" y="360" width="200" height="30" as="geometry" />
        </mxCell>
        <mxCell id="jB6_mRZn_5eLLBD233gM-106" value="0.01" style="rounded=0;whiteSpace=wrap;html=1;fillColor=#ffe6cc;strokeColor=#000000;fontSize=14;" vertex="1" parent="1">
          <mxGeometry x="1070" y="160" width="40" height="40" as="geometry" />
        </mxCell>
        <mxCell id="jB6_mRZn_5eLLBD233gM-107" value="0.11" style="rounded=0;whiteSpace=wrap;html=1;fillColor=#ffe6cc;strokeColor=#000000;fontSize=14;" vertex="1" parent="1">
          <mxGeometry x="1070" y="200" width="40" height="40" as="geometry" />
        </mxCell>
        <mxCell id="jB6_mRZn_5eLLBD233gM-108" value="0.52" style="rounded=0;whiteSpace=wrap;html=1;fillColor=#d5e8d4;strokeColor=#000000;fontSize=14;" vertex="1" parent="1">
          <mxGeometry x="1070" y="240" width="40" height="40" as="geometry" />
        </mxCell>
        <mxCell id="jB6_mRZn_5eLLBD233gM-109" value="0.32" style="rounded=0;whiteSpace=wrap;html=1;fillColor=#ffe6cc;strokeColor=#000000;fontSize=14;" vertex="1" parent="1">
          <mxGeometry x="1070" y="280" width="40" height="40" as="geometry" />
        </mxCell>
        <mxCell id="jB6_mRZn_5eLLBD233gM-110" value="0.04" style="rounded=0;whiteSpace=wrap;html=1;fillColor=#ffe6cc;strokeColor=#000000;fontSize=14;" vertex="1" parent="1">
          <mxGeometry x="1070" y="320" width="40" height="40" as="geometry" />
        </mxCell>
        <mxCell id="jB6_mRZn_5eLLBD233gM-111" value="a&lt;span style=&quot;font-size: 14px;&quot;&gt;&lt;sub style=&quot;font-size: 14px;&quot;&gt;0&lt;/sub&gt;&lt;/span&gt;" style="text;html=1;align=center;verticalAlign=middle;resizable=0;points=[];autosize=1;strokeColor=none;fillColor=none;fontSize=14;" vertex="1" parent="1">
          <mxGeometry x="1110" y="165" width="40" height="30" as="geometry" />
        </mxCell>
        <mxCell id="jB6_mRZn_5eLLBD233gM-112" value="a&lt;span style=&quot;font-size: 14px;&quot;&gt;&lt;sub style=&quot;font-size: 14px;&quot;&gt;4&lt;/sub&gt;&lt;/span&gt;" style="text;html=1;align=center;verticalAlign=middle;resizable=0;points=[];autosize=1;strokeColor=none;fillColor=none;fontSize=14;" vertex="1" parent="1">
          <mxGeometry x="1110" y="325" width="40" height="30" as="geometry" />
        </mxCell>
        <mxCell id="jB6_mRZn_5eLLBD233gM-113" value="a&lt;sub style=&quot;font-size: 14px;&quot;&gt;1&lt;/sub&gt;" style="text;html=1;align=center;verticalAlign=middle;resizable=0;points=[];autosize=1;strokeColor=none;fillColor=none;fontSize=14;" vertex="1" parent="1">
          <mxGeometry x="1110" y="205" width="40" height="30" as="geometry" />
        </mxCell>
        <mxCell id="jB6_mRZn_5eLLBD233gM-114" value="a&lt;span style=&quot;font-size: 14px;&quot;&gt;&lt;sub style=&quot;font-size: 14px;&quot;&gt;2&lt;/sub&gt;&lt;/span&gt;" style="text;html=1;align=center;verticalAlign=middle;resizable=0;points=[];autosize=1;strokeColor=none;fillColor=none;fontSize=14;" vertex="1" parent="1">
          <mxGeometry x="1110" y="245" width="40" height="30" as="geometry" />
        </mxCell>
        <mxCell id="jB6_mRZn_5eLLBD233gM-115" value="a&lt;span style=&quot;font-size: 14px;&quot;&gt;&lt;sub style=&quot;font-size: 14px;&quot;&gt;3&lt;/sub&gt;&lt;/span&gt;" style="text;html=1;align=center;verticalAlign=middle;resizable=0;points=[];autosize=1;strokeColor=none;fillColor=none;fontSize=14;" vertex="1" parent="1">
          <mxGeometry x="1110" y="285" width="40" height="30" as="geometry" />
        </mxCell>
        <mxCell id="jB6_mRZn_5eLLBD233gM-116" value="&lt;b style=&quot;font-size: 13px;&quot;&gt;Action Distribution&lt;/b&gt;&lt;div style=&quot;font-size: 13px;&quot;&gt;&lt;b style=&quot;font-size: 13px;&quot;&gt;Without Masking&lt;/b&gt;&lt;/div&gt;" style="text;html=1;align=center;verticalAlign=middle;resizable=0;points=[];autosize=1;strokeColor=none;fillColor=none;fontSize=13;" vertex="1" parent="1">
          <mxGeometry x="1020" y="120" width="140" height="40" as="geometry" />
        </mxCell>
      </root>
    </mxGraphModel>
  </diagram>
</mxfile>
